<svg xmlns="http://www.w3.org/2000/svg" xmlns:xlink="http://www.w3.org/1999/xlink" width="16" height="16" viewBox="0 0 16 16">
  <defs>
    <path id="合并形状1-a" d="M0,8 C0,3.581722 3.59071231,0 8,0 C12.418278,0 16,3.59071231 16,8 C16,12.418278 12.4092877,16 8,16 C3.581722,16 0,12.4092877 0,8 Z M12.8994949,6.41421356 L11.4852814,5 L6.53553391,9.94974747 L4.41421356,7.82842712 L3,9.24264069 L6.53553391,12.7781746 L12.8994949,6.41421356 Z"/>
  </defs>
  <g fill="none" fill-rule="evenodd">
    <use fill="#FFF" xlink:href="#合并形状1-a"/>
    <path stroke="#FFF" d="M0.5,8 C0.5,12.1363371 3.86105385,15.5 8,15.5 C12.1363371,15.5 15.5,12.1389461 15.5,8 C15.5,3.86366287 12.1389461,0.5 8,0.5 C3.86366287,0.5 0.5,3.86105385 0.5,8 Z M6.53553391,9.24264069 L11.4852814,4.29289322 L13.6066017,6.41421356 L6.53553391,13.4852814 L2.29289322,9.24264069 L4.41421356,7.12132034 L6.53553391,9.24264069 Z"/>
  </g>
</svg>
